<svg xmlns="http://www.w3.org/2000/svg" width="22.499" height="22.499" viewBox="0 0 22.499 22.499"><defs><style>.a{fill:#fff;}</style></defs><g transform="translate(0 0)"><path class="a" d="M8.671,7.5H1.64A1.642,1.642,0,0,1,0,5.859V1.641A1.642,1.642,0,0,1,1.64,0H8.671a1.642,1.642,0,0,1,1.641,1.64V5.859A1.642,1.642,0,0,1,8.671,7.5ZM1.64,1.406a.234.234,0,0,0-.234.234V5.859a.235.235,0,0,0,.234.234H8.671a.235.235,0,0,0,.234-.234V1.641a.235.235,0,0,0-.234-.234Zm0,0" transform="translate(0 0)"/><path class="a" d="M8.671,226.456H1.64A1.642,1.642,0,0,1,0,224.816v-9.843a1.642,1.642,0,0,1,1.64-1.641H8.671a1.642,1.642,0,0,1,1.641,1.641v9.843A1.642,1.642,0,0,1,8.671,226.456ZM1.64,214.738a.235.235,0,0,0-.234.234v9.843a.234.234,0,0,0,.234.234H8.671a.235.235,0,0,0,.234-.234v-9.843a.235.235,0,0,0-.234-.234Zm0,0" transform="translate(0 -203.958)"/><path class="a" d="M286,348.832h-7.031a1.642,1.642,0,0,1-1.641-1.64v-4.219a1.642,1.642,0,0,1,1.641-1.641H286a1.642,1.642,0,0,1,1.641,1.641v4.219A1.642,1.642,0,0,1,286,348.832Zm-7.031-6.093a.235.235,0,0,0-.234.234v4.219a.235.235,0,0,0,.234.234H286a.235.235,0,0,0,.234-.234v-4.219a.235.235,0,0,0-.234-.234Zm0,0" transform="translate(-265.145 -326.333)"/><path class="a" d="M286,13.124h-7.031a1.642,1.642,0,0,1-1.641-1.641V1.641A1.642,1.642,0,0,1,278.973,0H286a1.642,1.642,0,0,1,1.641,1.64v9.843A1.642,1.642,0,0,1,286,13.124ZM278.973,1.406a.235.235,0,0,0-.234.234v9.843a.235.235,0,0,0,.234.234H286a.235.235,0,0,0,.234-.234V1.641A.234.234,0,0,0,286,1.406Zm0,0" transform="translate(-265.145 0)"/></g></svg>